<?xml version="1.0" encoding="UTF-8"?>
<svg xmlns="http://www.w3.org/2000/svg" xmlns:xlink="http://www.w3.org/1999/xlink" width="128pt" height="128pt" viewBox="0 0 128 128" version="1.1">
<g id="surface1">
<path style=" stroke:none;fill-rule:nonzero;fill:rgb(70.196078%,70.196078%,70.196078%);fill-opacity:1;" d="M 63.804688 0.160156 L 0.425781 21.304688 L 10.441406 100.023438 L 63.871094 127.863281 L 117.574219 99.648438 L 127.585938 20.933594 Z M 63.804688 0.160156 "/>
<path style=" stroke:none;fill-rule:nonzero;fill:rgb(65.098039%,7.058824%,5.098039%);fill-opacity:1;" d="M 121.265625 25.480469 L 63.65625 6.855469 L 63.65625 121.210938 L 111.933594 95.882812 Z M 121.265625 25.480469 "/>
<path style=" stroke:none;fill-rule:nonzero;fill:rgb(86.666667%,10.588235%,8.627451%);fill-opacity:1;" d="M 7.535156 25.816406 L 16.117188 96.21875 L 63.652344 121.210938 L 63.652344 6.855469 Z M 7.535156 25.816406 "/>
<path style=" stroke:none;fill-rule:nonzero;fill:rgb(94.901961%,94.901961%,94.901961%);fill-opacity:1;" d="M 79.511719 67.734375 L 63.65625 74.765625 L 46.941406 74.765625 L 39.082031 93.394531 L 24.46875 93.652344 L 63.65625 11.007812 Z M 77.980469 64.195312 L 63.761719 37.507812 L 52.097656 63.734375 L 63.65625 63.734375 Z M 77.980469 64.195312 "/>
<path style=" stroke:none;fill-rule:nonzero;fill:rgb(70.196078%,70.196078%,70.196078%);fill-opacity:1;" d="M 63.65625 11.007812 L 63.757812 37.507812 L 76.996094 63.753906 L 63.683594 63.753906 L 63.65625 74.746094 L 82.058594 74.761719 L 90.660156 93.652344 L 104.644531 93.898438 Z M 63.65625 11.007812 "/>
</g>
</svg>
