<?xml version="1.0" encoding="UTF-8"?>
<svg xmlns="http://www.w3.org/2000/svg" xmlns:xlink="http://www.w3.org/1999/xlink" width="100pt" height="100pt" viewBox="0 0 100 100" version="1.1">
<g id="surface1">
<path style=" stroke:none;fill-rule:nonzero;fill:rgb(70.196078%,70.196078%,70.196078%);fill-opacity:1;" d="M 49.847656 0.125 L 0.332031 16.644531 L 8.15625 78.144531 L 49.898438 99.894531 L 91.855469 77.851562 L 99.675781 16.355469 Z M 49.847656 0.125 "/>
<path style=" stroke:none;fill-rule:nonzero;fill:rgb(65.098039%,7.058824%,5.098039%);fill-opacity:1;" d="M 94.738281 19.90625 L 49.730469 5.355469 L 49.730469 94.695312 L 87.449219 74.910156 Z M 94.738281 19.90625 "/>
<path style=" stroke:none;fill-rule:nonzero;fill:rgb(86.666667%,10.588235%,8.627451%);fill-opacity:1;" d="M 5.886719 20.167969 L 12.589844 75.171875 L 49.726562 94.695312 L 49.726562 5.355469 Z M 5.886719 20.167969 "/>
<path style=" stroke:none;fill-rule:nonzero;fill:rgb(94.901961%,94.901961%,94.901961%);fill-opacity:1;" d="M 62.117188 52.917969 L 49.730469 58.410156 L 36.671875 58.410156 L 30.53125 72.964844 L 19.117188 73.164062 L 49.730469 8.601562 Z M 60.921875 50.152344 L 49.8125 29.304688 L 40.703125 49.792969 L 49.730469 49.792969 Z M 60.921875 50.152344 "/>
<path style=" stroke:none;fill-rule:nonzero;fill:rgb(70.196078%,70.196078%,70.196078%);fill-opacity:1;" d="M 49.730469 8.601562 L 49.8125 29.304688 L 60.152344 49.808594 L 49.753906 49.808594 L 49.730469 58.394531 L 64.109375 58.40625 L 70.828125 73.164062 L 81.753906 73.359375 Z M 49.730469 8.601562 "/>
</g>
</svg>
